<svg viewBox="0 0 120 160" xmlns="http://www.w3.org/2000/svg" fill-rule="evenodd" clip-rule="evenodd" stroke-linecap="round" stroke-linejoin="round" stroke-miterlimit="1.5"><path d="M11.875 117.283a7.115 7.115 0 01-.518-.916c-.796-1.636-2.039-5.107-4.357-12.879-.994-3.333-1.375-5.943-1.355-7.986-.235-.572-.242-1.213-.117-1.852.185-.946.659-1.887 1.073-2.575.216-.408.458-.762.718-1.068l.122.098-.122-.099.024-.028.019-.022.002-.002.022-.025.02-.023.002-.002s.001-.001 0 0l.02-.022.023-.026.002-.002s.001 0 0 0l.017-.019.026-.028.003-.002a5.41 5.41 0 01.416-.4l.039-.032.008-.007.003-.003.004-.003.03-.025s.01-.01.01-.008l.004-.004.005-.004.026-.02.012-.01.005-.004.005-.005.023-.018.014-.01.006-.006.006-.004.02-.016.015-.011.007-.006.006-.004.018-.014.017-.012.008-.006.005-.004.015-.012.02-.014.008-.006.004-.003.014-.01.022-.015.01-.007.002-.002.012-.01.025-.016.009-.007s.003-.002.002 0l.01-.008.028-.019.009-.006h.001L8.45 89s.001 0 0 0l.049-.032.19-.117.003-.002.044-.025.004-.003.042-.024.007-.003.005-.004.011-.006.024-.013.008-.004.007-.004.01-.006.021-.011.01-.005.008-.004.01-.006.019-.01.01-.005.01-.005.01-.005.016-.009.013-.006.01-.006.009-.004.015-.007.014-.007.012-.006.007-.004.013-.007.016-.007.013-.006.006-.003.011-.006.018-.008.014-.007.005-.002.01-.005.02-.009.014-.007.004-.001.009-.004.006-.003.086-.038.004-.002.088-.037s.002-.001 0 0l.046-.02.039-.015.006-.002s.001 0 0 0l.09-.035.03-.01.028-.011.014-.005.019-.007.032-.011.03-.01.011-.005.017-.005.035-.012.031-.01.009-.003.013-.004.039-.013.033-.01.006-.002.01-.003.043-.013.033-.01h.004l.087-.025h.001l.09-.024.168-.04.002-.001.08-.018h.004l.009-.003.029-.006.038-.007.007-.002.01-.002.028-.005.034-.007.01-.001.012-.003.025-.004.03-.006.012-.002.014-.002.023-.004.027-.004.014-.003.017-.002.02-.003.024-.004.016-.002.018-.003.017-.002.022-.003.018-.003.019-.002.015-.002.019-.003.02-.002.02-.003.013-.001.016-.002.022-.002.022-.003h.01l.014-.002.023-.003.023-.002h.008l.012-.002.025-.002.023-.002h.006l.009-.001.027-.002.023-.002h.005l.059-.004h.002l.059-.004s.002 0 0 0l.163-.006.092-.002h.083l.028.001h.044l.026.002h.035l.022.002h.018l.002.001h.005l.02.001.013.001h-.001.005c.088.007.176.01.264.016l1.838.1.72.038.82.043c3.175.166 8.242.42 14.398.694l1.711.076 3.56.152 1.848.076.392.015a1794.717 1794.717 0 009.306.353 1323.795 1323.795 0 0016.734.484c1.604.034 3.2.066 4.779.092 6.585.111 12.927.143 18.486.049l.432-.007.428-.009.425-.008.58-.013c1.17-.027 2.3-.06 3.384-.1l.56-.02c1.258-.05 2.452-.109 3.571-.177.43-.027.849-.055 1.257-.084a83.046 83.046 0 002.617-.228l.125-.012.19-.021c.576-.063 1.117-.13 1.62-.203l.233-.034.158-.024.072-.011.037-.006c.431-.068.831-.14 1.198-.217l.022-.004.006-.001c.157-.033.308-.067.453-.101l.02-.005.067-.016.113-.029c.251-.063.482-.13.69-.199.04-.012.077-.025.113-.038l.066-.023.186-.07.058-.024.218-.093a27.836 27.836 0 011.591-.622l.239-.082a19.834 19.834 0 011.286-.394l.176-.045.26-.064.251-.057a12.538 12.538 0 011.138-.193l.225-.024c.223-.02.436-.032.638-.035l.098-.001.001.154v-.154l.244.003a6.06 6.06 0 01.763.073l.115.02.174.037.175.044.089.025a3.42 3.42 0 011.08.527 2.948 2.948 0 01.886 1.051 3.16 3.16 0 01.14.315l.029.081c.043.124.075.242.1.351l.014.06.033.18c.026.16.033.286.036.36v.014c3.888 4.75 2.099 10.407-1.801 16.393 1.411 4.058 1.308 7.018.68 9.11a8.46 8.46 0 01-1.569 2.978c.494.166 1.031.364 1.618.596.918.364 1.667 1.218 2.265 2.45.871 1.799 1.426 4.41 1.753 7.43 1.265 11.671-.855 29.448-.855 29.448a.157.157 0 01-.165.138c-1.132-.07-90.934 1.589-110.143 1.344-1.5-.019-2.57-.05-3.137-.094-.271-.02-.439-.05-.497-.077-.714-.326-1.418-1.1-2.008-2.036-.872-1.384-1.497-3.117-1.562-4.218-.21-3.496.099-3.434.099-21.817 0-7.446 2.019-11.305 4.772-13.13 1.662-1.1 3.596-1.464 5.533-1.42.467.012.934.046 1.398.1z" fill="#fde09e"/><path d="M14.898 118.826a8.687 8.687 0 01-.65-.533c-1.163-1.16-1.318 1.315-6.045-14.848-.974-3.332-1.346-5.937-1.323-7.973-.577-1.38.253-3.196.918-4.322.207-.4.44-.745.688-1.045l.144-.165.027-.03c.129-.141.262-.27.398-.39l.25-.206.176-.128.128-.088.244-.151.291-.157.14-.067.212-.093.215-.084.255-.085.165-.049.25-.063.32-.065.324-.046.246-.024.264-.013h.233l.135.006c.088.007.175.01.263.016l1.803.1.707.038.803.043c3.114.166 8.084.42 14.122.695l1.678.075 3.492.152 1.812.076.384.016a1631.9 1631.9 0 0013.069.487 1274 1274 0 007.243.22 1075.947 1075.947 0 009.915.222c6.46.11 12.681.142 18.135.048l.424-.007.42-.008.417-.009.57-.013c1.147-.026 2.256-.06 3.32-.099l.549-.021c1.235-.05 2.407-.108 3.506-.177.422-.027.833-.055 1.234-.084a80.975 80.975 0 002.572-.228l.31-.033c.566-.064 1.098-.131 1.593-.204l.23-.034.263-.041c.425-.069.82-.141 1.182-.218l.028-.006c.155-.033.305-.067.448-.102l.199-.05c.25-.065.48-.132.687-.202l.18-.063c.065-.024.128-.048.188-.073l.273-.118a26.813 26.813 0 011.551-.617l.232-.083a20.329 20.329 0 011.251-.39l.256-.067.167-.04.244-.057a12.015 12.015 0 01.864-.16l.327-.04.127-.014c.215-.02.419-.032.614-.035h.094l.234.003c.186.005.362.02.528.04l.229.035.08.015.215.047a3.645 3.645 0 01.406.124 3.159 3.159 0 01.804.433 2.785 2.785 0 01.92 1.213l.06.161c.04.118.072.231.095.335l.025.121.019.108c.023.153.03.272.033.34v.066c3.829 4.724 2.04 10.356-1.782 16.318 2.703 7.852-.181 11.57-1.615 12.844-4.496-1.23-4.434.791-6.755 1.85-2.712 1.237-10.143 4.395-16.188 3.854-6.045-.542-13.075-3.09-19.197-1.621-6.123 1.47-6.153 2.716-13.05 1.866-6.898-.851-8.528-2.276-11.318-.962-2.79 1.315-7.437 2.121-12.94-1.59-5.502-3.713-8.17-2.267-10.23-1.78-.366.088-3.04-1.304-6.324-2.096z" fill="#fcf3df"/><path d="M116.622 158.508s4.263-35.42-3.022-38.281c-7.285-2.862-6.742-.31-9.455.928-2.712 1.237-10.143 4.395-16.188 3.854-6.045-.542-13.075-3.09-19.197-1.621-6.123 1.47-6.153 2.716-13.05 1.866-6.898-.851-8.528-2.276-11.318-.962-2.79 1.315-7.437 2.121-12.94-1.59-5.502-3.713-8.17-2.267-10.23-1.78-1.025.243-20.071-11.058-20.071 11.446 0 17.962-.304 17.901-.099 21.317.107 1.762 1.726 5.21 3.431 5.983 1.705.773 110.9-1.237 112.14-1.16z" fill="#fcf3df"/><path d="M112.746 106.265c-5.498 2.999-21.352 5.35-28.526 3.29a.223.223 0 10-.124.428c7.26 2.084 23.3-.292 28.864-3.327a.223.223 0 10-.214-.39zM96.577 122.246c6.241-.61 12.583-2.088 15.667-3.77a.223.223 0 11.214.391c-3.126 1.705-9.558 3.202-15.881 3.817v-.438z" fill="#fde09e"/><path d="M131.795 326.927c5.788-6.976 14.351-6.134 14.351-6.134s265.246 15.264 296.525 1.502c31.279-13.763 30.779 4.754 30.779 4.754l.171.214c-1.909 3.049-3.814 5.609-5.361 6.707-5.171 3.67-11.309 7.384-16.736 18.871-14.78 31.288-48.881 42.16-75.003 38.346-7.826-1.142-36.229 28.672-59.25 18.996-23.022-9.676-40.634 3.479-50.694-1.644-11.05-5.627-18.94-6.784-43.129-14.291-10.013-3.107-37.889-23.494-47.429-27.842-14.469-6.595-31.276-10.12-45.738-18.192-10.502-5.861 1.556-21.253 1.514-21.287z" fill="#efe7dd" stroke="#fde09e" stroke-width="4.07" transform="matrix(.3097 0 0 .30906 -32.331 -10.934)"/><path d="M10.847 88.637c1.304-.402 2.764-.252 2.764-.252s81.543 4.661 91.196.326c4.236-1.902 6.492-1.542 8.264-.954-11.032 15.715-29.95 26.089-51.416 26.089-21.032 0-39.69-10.028-50.808-25.21z" fill="#e0c6a3"/><circle cx="298.766" cy="223.576" r="191.034" fill="#f4e4e2" transform="matrix(.30678 0 0 .29613 -30.26 -9.637)"/><path d="M63.125 51.757a.203.203 0 00-.213-.192l-.946.05a.203.203 0 00-.192.213l1.203 22.652a.203.203 0 00.213.192l.946-.05a.203.203 0 00.192-.214l-1.203-22.651z" fill="#efdad7"/><path d="M61.395 0C93.74 0 120 25.349 120 56.57c0 31.223-26.26 56.572-58.605 56.572S2.79 87.793 2.79 56.57C2.79 25.349 29.05 0 61.395 0zM33.23 82.309C27.134 85.97-4.144 63.787 18.72 32.984c10.013-13.487 18.037-16.017 22.654-15.448 14.647 1.806 15.486 10.788 29.928.884 3.488-2.391 8.856-2.423 11.7-1.246 16.45 6.807 30.552 31.33 29.39 38.366-2.95 17.871-16.469 28.18-20.875 26.587-4.406-1.594-8.163-4.556-8.163-4.556-.993-.698-2.838-2.786-8.676-4.248-3.023-.758-7.299-1.584-10.469-.188-2.223.979-2.224 1.738-6.171.238-3.462-1.315-4.407-.184-6.96 1.345-2.555 1.53-2.597-2.056-11.03 1.928-1.739.822-4.184 3.806-6.818 5.663z" fill="#3e2c3b"/><circle cx="243.825" cy="224.144" r="24.356" fill="#462c3b" transform="matrix(.3097 0 0 .30906 -32.331 -10.934)"/><circle cx="243.825" cy="224.144" r="24.356" fill="#edeaea" transform="matrix(.0905 0 0 .09032 23.181 36.12)"/><circle cx="243.825" cy="224.144" r="24.356" fill="#462c3b" transform="matrix(.3097 0 0 .30906 2.071 -12.17)"/><path d="M30.916 50.909c3.297-19.4 24.632-13.31 23.547-3.225-6.717-9.002-20.782-7.963-23.547 3.225z" fill="#efdad7"/><path d="M30.97 50.533c3.297-21.08 24.631-14.462 23.546-3.504-6.716-9.782-20.78-8.652-23.547 3.504z" fill="#462c3b"/><path d="M67.213 48.655c-2.156-2.932 11.207-24.385 22.355-1.16-6.752-8.838-18.977-8.67-22.355 1.16z" fill="#efdad7"/><path d="M66.997 47.985c-2.143-2.966 11.14-24.662 22.222-1.173-6.712-8.938-18.865-8.768-22.222 1.173z" fill="#462c3b"/><circle cx="265.543" cy="454.722" r="5.498" fill="#d5551d" transform="matrix(.3097 0 0 .30906 -32.728 -13.045)"/><circle cx="322.556" cy="444.793" r="5.926" fill="#d5551d" transform="matrix(.3097 0 0 .30906 -31.968 -10.966)"/><circle cx="322.556" cy="444.793" r="5.926" fill="#3e2c3b" transform="matrix(.21895 0 0 .2185 -2.695 29.316)"/><circle cx="322.556" cy="444.793" r="5.926" fill="#3e2c3b" transform="matrix(.21895 0 0 .2185 -21.167 30.296)"/><path d="M49.433 127.828c-.137.13-.682-.31-.773.305-.461 3.135.165 12.305 1.533 14.444.576.9.056 3.866-.562 5.94-.635 2.13-.893 4.29.364 3.827 1.256-.462 2.34-1.832 1.587-3.101-1.084-1.827 1.037-4.615-.478-8.847-1.074-3-1.75-12.227-1.671-12.568z" fill="#3e2c3b"/><path d="M49.809 127.72c-.137.131-.682-.309-.772.305-.462 3.136.164 12.305 1.532 14.445.576.9.056 3.866-.562 5.94-.635 2.13-.892 4.289.364 3.827 1.257-.462 2.34-1.832 1.587-3.102-1.084-1.827 1.037-4.615-.478-8.847-1.074-2.999-1.75-12.226-1.671-12.568z" fill="#a22a29"/><path d="M67.12 127.01s-1.15 3.217.914 6.648c2.064 3.432-.72 6.033-1.243 9.293-.598 3.727-2.076 6.895-1.362 7.96 1.813 2.701 2.51 2.082 2.51 2.082l.689-.931c-.895-.326-3.896.076 1.455-14.255.547-1.465-.638-3.644-1.25-5.336-.747-2.074-1.007-3.62-.762-4.73.02-.092-.95-.73-.95-.73z" fill="#3e2c3b"/><path d="M67.376 126.728s-1.15 3.217.914 6.648c2.063 3.432-.72 6.033-1.243 9.292-.598 3.728-2.076 6.895-1.362 7.96 1.813 2.702 2.51 2.083 2.51 2.083l.689-.932c-.895-.325-3.896.077 1.455-14.254.547-1.466-.638-3.645-1.25-5.337-.747-2.073-1.007-3.619-.763-4.729.02-.092-.95-.73-.95-.73z" fill="#a22a29"/><path d="M44.272 78.47c-.745 3.311 1.86 9.09 6.457 12.562 5.495 4.152 13.152 5.576 20.929-.573 3.094-2.446 4.981-6.618 5.473-12.647l-5.672 1.94s-3.104.992-5.045-.25c-1.52-.972-2.275-.99-3.198-.137 0 0-1.933 1.58-3.445-.083-1.51-1.663-3.06-.078-4.34.193-1.278.27-4.378 1.856-11.16-1.005z" fill="#dc5a5a"/><path d="M44.272 78.47c.774 2.91 18.119 17.757 32.859-.658-11.476 9.34-22.427 8.206-32.86.658z" fill="#bd4346"/><circle cx="243.825" cy="224.144" r="24.356" fill="#edeaea" transform="matrix(.0905 0 0 .09032 52.544 36.12)"/><path d="M8.247 105.876c-.061.76.984 1.22 1.863 1.451 1.154.304 2.81.233 3.693.207.004 0 4.98-.237 12.13 3.847 7.282 4.16 5.062 4.319 12.344 4.374 4.97.038 6.49 1.13 8.18 2.435.745.576 1.524 1.19 2.628 1.774a.223.223 0 00.21-.394c-1.079-.57-1.837-1.17-2.565-1.732-1.747-1.349-3.314-2.49-8.45-2.528-7.157-.055-4.969-.227-12.125-4.315-7.29-4.165-12.37-3.906-12.37-3.906-.848.025-2.447.1-3.561-.193-.634-.167-1.576-.436-1.532-.984a.223.223 0 00-.445-.036zM13.705 118.075c1.096.35 2.452.393 5.47.417 5.137.039 6.704 1.18 8.45 2.527.728.562 1.487 1.163 2.565 1.733a.223.223 0 11-.21.394c-1.104-.585-1.882-1.199-2.628-1.774-1.69-1.305-3.21-2.397-8.18-2.435-2.98-.023-4.368-.062-5.467-.387v-.475z" fill="#fde09e"/></svg>