<svg viewBox="0 0 120 160" xmlns="http://www.w3.org/2000/svg" fill-rule="evenodd" clip-rule="evenodd" stroke-linejoin="round" stroke-miterlimit="2"><path d="M52.166 159.983l-42.906-.158-.262-.279c1.927-32.08 26.166-39.37 26.742-39.539l1.136-.421a.264.264 0 01.118-.015l21.294 2.14a.262.262 0 01.126-.052l21.017-2.896a.263.263 0 01.083.002l1.174.213c.45.027 8.918.635 16.108 9.263 4.895 5.873 9.208 15.479 9.95 31.193a.262.262 0 01-.26.275L62.78 160l-7.459-.005-2.487-.01-.668.002v-.004zM75.132 104.407l.423-.22c1.271-.293 4.012.049 4.965 1.078.084.09-.075.168-.11.195-20.38 15.357-42.25 4.956-44.306 2.492-2.321-2.781 3.785-3.415 3.785-3.415l.248-.159c2.051 1.52 4.738 2.926 8.835 4.444h14.747s5.182.641 11.413-4.415z" fill="#064355"/><path d="M23.776 42.674c-.296-27.858 54.758-41.008 69.953-1.337-23.628 3.053-46.926 3.331-69.953 1.337z" fill="#f3e8d6"/><path d="M76.363 102.892l.041-.002-.177 5.412.26 4.306-9.046 2.174-18.599 1.362-9.715-2.342.692-3.87.023-6.199c2.088 1.662 4.834 3.183 9.13 4.83h14.747s5.88.754 12.644-5.67z" fill="#efdad7"/><path d="M71.145 106.688c-4.607 3.342-9.144 4.508-13.204 4.483l-.078-.001c-5.543-.055-10.189-2.323-12.894-4.28l.011-3.355c1.5 1.269 3.475 2.43 6.563 3.69h10.6s4.226.575 9.089-4.333l.03-.002-.117 3.798z" fill="#e6cfcc"/><path d="M88.14 31.074a40.47 40.47 0 013.815 6.216 727.88 727.88 0 01-67.828 1.41l-.01-.001a21.074 21.074 0 012.393-6.52c14.977.281 35.113-.04 61.63-1.105z" fill="#58a4bb"/><path d="M48.143 48.301l-16.193.65-2.106 22.823v11.322S28.42 90.74 32.891 96.4c4.471 5.661 6.057 8.708 16.081 12.422 4.239.823 9.398 1.037 14.886.342.674-.086 13.487-.402 22.54-20.933l2.777-28.77-2.776-13.972L48.143 48.3z" fill="#f4e4e2"/><path d="M39.211 61.192s.665.772 1.313.386c.648-.386 4.5-4.853 10.977-1.478v-1.578s-5.497-4.164-12.29 2.67z" fill="#efdad7"/><path d="M38.541 60.787s.702.85 1.385.424c.683-.424 4.744-5.335 11.575-1.624v-1.735s-5.797-4.579-12.96 2.935z" fill="#462c3b"/><path d="M64.354 58.926s-.504.98.558 1.46c1.063.48 1.402-4.629 12.157 1.086v-1.326c.1.383-5.766-6.381-12.715-1.22z" fill="#efdad7"/><path d="M64.036 58.586s-.517 1.056.572 1.573c1.09.517 1.437-4.987 12.461 1.171V59.9c.103.414-5.91-6.874-13.033-1.314zM45.768 63.736c-1.547-.028-4.796 4.002-.854 5.425 2.044.737 3.189-1.108 3.092-2.623-.101-1.574-1.039-2.78-2.238-2.802z" fill="#462c3b"/><path d="M76.825 76.702c-1.193-.027-3.696 3.85-.658 5.22 1.575.71 2.457-1.066 2.382-2.524-.078-1.514-.8-2.675-1.724-2.696z" fill="#f0cdcc"/><path d="M71.504 63.696c-1.382.04-3.747 3.369-.786 5.041 3.74 2.113 4.501-2.67 3.722-3.792-1.012-1.457-2.296-1.268-2.936-1.249z" fill="#462c3b"/><path d="M41.737 76.437c-1.382.04-3.747 3.37-.786 5.041 3.74 2.113 4.501-2.67 3.722-3.792-1.012-1.457-2.296-1.268-2.936-1.249z" fill="#f0cdcc"/><path d="M54.126 80.493c-.082-.41-2.49 2.116-.429 3.973.349.314.797.239 1.197.067.463-.2 1.093.084 1.572.154.375.054.655-.982-.285-1.322-.754-.274-1.72.366-2.379.394-.265.012-1.594-.831.324-3.266zM65.284 81.597c-.088.107-.693 1.772-1.204 1.571-.733-.287-1.896-.36-2.213.553-.188.538.476.716.878.5.275-.148.641-.938 1.547-.652.633.2 1.2-2.225.992-1.972z" fill="#593f4e"/><path d="M72.85 85.064c-5.67 9.124-22.672 10.261-27.704 4.224 3.324 10.666 22.598 13.415 27.705-4.224z" fill="#dc5a5a"/><path d="M72.85 85.064c-5.402 11.768-22.412 12.825-27.704 4.224 2.845 8.179 22.023 10.43 27.705-4.224z" fill="#bd4346"/><path d="M58.275 123.738l21.72-4.152 1.154.214s23.285 1.113 25.08 39.89l-42.44.289s-3.497-8.764-4.288-13.38c-.951-5.551-1.418-19.933-1.418-19.933s-.609 14.297-1.304 19.848c-.57 4.552-2.867 13.46-2.867 13.46l-44.396-.17c1.868-32.006 25.602-38.995 25.602-38.995l1.103-.421 22.133 2.16-.079 1.19z" fill="#58a4bb"/><path d="M58.408 113.68l-2.005.056-.547 9.385c1.841.27 3.624.205 5.357-.147l-2.805-9.294z" fill="#064355"/><path d="M80.559 105.286v13.888c-9.526 5.132-20.344 5.5-20.344 5.5l-1.68-4.356-.718-6.665c6.977-.265 14.891-2.39 22.593-8.193a.508.508 0 00.149-.174z" fill="#1683a5"/><path d="M35.613 107.065c.065.268.22.563.491.887 1.275 1.528 10.169 6.108 21.604 5.705l.116.043c.17 4.053.083 7.664-.634 10.19-17.97 2.234-21.378-3.563-21.378-3.563l-.199-13.262z" fill="#1683a5"/><path d="M25.64 88.123s1.494 1.669-.678 3.987c-2.172 2.32-13.012 13.221-12.412 25.74-.156.925 4.518 3.744 5.377 4.211 1.157.63 2.001.6 3.936.37 1.935-.232 9.448-10.27 9.54-17.215.092-6.946.392-11.681-1.038-17.093H25.64z" fill="#a22a29"/><path d="M29.509 87.968c1.43 5.412-.353 10.302-.445 17.248-.092 6.946-7.605 16.983-9.54 17.214l-.496.058a4.096 4.096 0 01-1.101-.427c-.859-.467-5.533-3.286-5.377-4.211-.6-12.519 10.24-23.42 12.412-25.74 2.172-2.318.678-3.987.678-3.987l3.869-.155z" fill="#d5551d"/><path d="M88.516 86.754s-4.741 16.027 4.424 35.825c4.995 1.593 8.398-.303 11.918-6.155 2.508-1.818 4.663-2.22 5.626-3.653.812-1.41-5.319-10.706-10.554-19.525 0 0-3.551-7.393-8.133-8.12l-3.281 1.628z" fill="#a22a29"/><path d="M93.099 85.513c3.935 1.704 6.831 7.733 6.831 7.733 5.235 8.819 11.366 18.115 10.554 19.525-.963 1.433-3.118 1.835-5.626 3.653-2.607 4.335-5.15 6.499-8.325 6.682-.45.026-1.168.102-1.766-.088-9.165-19.799-5.199-36.901-5.199-36.901l2.4-1.086 1.13.482z" fill="#d5551d"/><ellipse cx="241.932" cy="224.489" rx="2.986" ry="2.917" fill="#edeaea" transform="matrix(.21658 .05014 -.06023 .26014 7.18 -4.562)"/><ellipse cx="241.932" cy="224.489" rx="2.986" ry="2.917" fill="#edeaea" transform="matrix(-.1816 .05649 -.06692 -.21514 130.07 100.586)"/><circle cx="408.155" cy="295.751" r="13.333" fill="#58a4bb" transform="matrix(.29862 -.06997 .03818 .16295 -43.423 65.05)"/><circle cx="408.155" cy="295.751" r="13.333" fill="#064355" transform="matrix(.15788 -.037 .01082 .04617 21.75 84.572)"/><ellipse cx="158.541" cy="309.513" rx="14.648" ry="9.494" fill="#58a4bb" transform="matrix(.26234 .04974 -.04734 .24965 1.11 1.407)"/><path d="M87.065 48.841a915.658 915.658 0 01-55.287 1.978l.172-1.869 16.193-.649 38.256-2.812.666 3.352z" fill="#e6cfcc"/><ellipse cx="158.541" cy="309.513" rx="14.648" ry="9.494" fill="#064355" transform="matrix(.1359 .02577 -.01497 .07893 11.447 56.426)"/><path d="M22.913 50.166S21.9 72.42 27.983 84.701c.786.66.846 1.218 2.684 1.042 1.97-.189 8.06-30.155 8.246-36.736l-16 1.159z" fill="#e6cfcc"/><path d="M21.876 50.166s-1.014 22.254 5.07 34.535c.785.66.846 1.218 2.684 1.042 1.97-.189 8.06-30.155 8.246-36.736l-16 1.159z" fill="#a22a29"/><path d="M35.531 49.177c-.26 6.364-4.568 31.603-6.298 35.428a1.022 1.022 0 00-.055.164c-.066.256-.124.762-.337.954-.142.127-.34.024-.702-.047-.324-.063-.629-.15-.646-.177-.168-.109-.335-.207-.547-.798-6.084-12.281-5.07-34.535-5.07-34.535l13.655-.989z" fill="#d5551d"/><path d="M78.646 47.742s.217 27.87 9.303 35.408c1.049 1.219 1.993.71 2.885-.685 0 0 5.343-19.089 5.632-22.802.288-3.714 1.74-11.282.71-13.505-1.028-2.223-18.53 1.584-18.53 1.584z" fill="#a22a29"/><path d="M95.208 45.485c1.06.066 1.783.271 1.969.673 1.029 2.223-.423 9.79-.711 13.505-.29 3.713-5.632 22.802-5.632 22.802-.1.731-.093.97-.757 1.156-.21.03-.466.186-.55.088-9.087-7.54-9.012-35.967-9.012-35.967s9.246-2.01 14.693-2.257z" fill="#d5551d"/><path d="M5.29 50.965l113.204-4.049c2.23.182 2.23-6.46-1.673-6.778-37.775 2.258-74.958 3.036-111.531 2.289-7.053.252-7.053 8.79 0 8.538z" fill="#efd3a7"/><path d="M60.001 62.005a.123.123 0 00-.128-.118l-.245.012a.123.123 0 00-.117.128l.695 15.387c.003.068.06.12.128.117l.245-.01a.123.123 0 00.117-.129l-.695-15.387z" fill="#efdad7"/></svg>