<?xml version="1.0" encoding="UTF-8" standalone="no"?>
<!-- Created with Inkscape (http://www.inkscape.org/) -->

<svg
   xmlns:dc="http://purl.org/dc/elements/1.1/"
   xmlns:cc="http://creativecommons.org/ns#"
   xmlns:rdf="http://www.w3.org/1999/02/22-rdf-syntax-ns#"
   xmlns:svg="http://www.w3.org/2000/svg"
   xmlns="http://www.w3.org/2000/svg"
   xmlns:sodipodi="http://sodipodi.sourceforge.net/DTD/sodipodi-0.dtd"
   xmlns:inkscape="http://www.inkscape.org/namespaces/inkscape"
   width="240"
   height="450"
   viewBox="0 0 63.499999 119.06251"
   version="1.1"
   id="svg2395"
   inkscape:version="0.92.5 (2060ec1f9f, 2020-04-08)"
   sodipodi:docname="ang.svg">
  <defs
     id="defs2389" />
  <sodipodi:namedview
     id="base"
     pagecolor="#ffffff"
     bordercolor="#666666"
     borderopacity="1.0"
     inkscape:pageopacity="0.0"
     inkscape:pageshadow="2"
     inkscape:zoom="1.2140297"
     inkscape:cx="123.70666"
     inkscape:cy="280.89624"
     inkscape:document-units="px"
     inkscape:current-layer="layer1"
     showgrid="false"
     units="px"
     inkscape:window-width="1294"
     inkscape:window-height="704"
     inkscape:window-x="72"
     inkscape:window-y="27"
     inkscape:window-maximized="1" />
  <metadata
     id="metadata2392">
    <rdf:RDF>
      <cc:Work
         rdf:about="">
        <dc:format>image/svg+xml</dc:format>
        <dc:type
           rdf:resource="http://purl.org/dc/dcmitype/StillImage" />
        <dc:title></dc:title>
      </cc:Work>
    </rdf:RDF>
  </metadata>
  <g
     inkscape:label="Layer 1"
     inkscape:groupmode="layer"
     id="layer1"
     transform="translate(0,-177.93748)">
    <g
       id="g3319"
       transform="matrix(0.99172363,0,0,0.99172363,-44.329297,-29.508393)"
       style="stroke-width:1.00834548">
      <path
         inkscape:connector-curvature="0"
         id="rect4656-0"
         d="m 71.090197,258.14808 c -1.26378,0 -2.28227,1.01722 -2.28227,2.28104 v 1.78028 c 0,1.26381 1.01849,2.28103 2.28227,2.28103 h 1.77652 v 3.88769 h 7.22934 v -3.88769 h 1.776521 c 1.26378,0 2.28227,-1.01722 2.28227,-2.28103 v -1.78028 c 0,-1.26382 -1.01849,-2.28104 -2.28227,-2.28104 z"
         style="fill:#f7df1e;fill-opacity:1;stroke:none;stroke-width:0.5876047;stroke-miterlimit:4;stroke-dasharray:none" />
      <path
         inkscape:connector-curvature="0"
         id="rect942-6"
         d="m 44.966036,209.1771 v 28.66568 l 20.417321,18.95646 h 11.33083 11.33088 L 108.46239,237.84278 V 209.1771 H 76.714187 Z"
         style="fill:#353535;fill-opacity:1;stroke-width:0.66952741" />
      <circle
         r="27.057552"
         cy="294.39169"
         cx="76.714127"
         id="path4652-1"
         style="fill:#f7df1e;fill-opacity:1;stroke:none;stroke-width:0.65057307;stroke-miterlimit:4;stroke-dasharray:none" />
      <circle
         r="22.769829"
         cy="294.39169"
         cx="76.714127"
         id="path4652-3-5"
         style="fill:#2687ad;fill-opacity:1;stroke:none;stroke-width:0.54747885;stroke-miterlimit:4;stroke-dasharray:none" />
      <path
         inkscape:connector-curvature="0"
         id="path6814"
         d="m 62.540467,304.88883 -5.808191,18.28001 c -0.23345,0.73466 0.8188,1.92794 2.420581,1.25699 l 6.48771,-2.71757 -0.0103,0.0405 4.32216,5.55847 c 1.066,1.37097 2.568321,0.84802 2.725679,0.0934 l 3.915601,-18.77637 -6.68906,-2.67087 0.02,-0.0738 z"
         style="fill:#67c2e5;fill-opacity:1;stroke:none;stroke-width:0.14437224px;stroke-linecap:butt;stroke-linejoin:miter;stroke-opacity:1" />
      <path
         inkscape:connector-curvature="0"
         id="rect6863"
         d="m 67.017107,305.48961 -5.70389,18.0314 2.36356,-0.98993 5.30707,-16.77748 z"
         style="opacity:1;fill:#9bcffd;fill-opacity:1;stroke:none;stroke-width:0.18195051;stroke-miterlimit:4;stroke-dasharray:none;stroke-opacity:1" />
      <path
         inkscape:connector-curvature="0"
         id="path6814-9"
         d="m 90.825298,304.88883 5.808199,18.28001 c 0.233392,0.73466 -0.818808,1.92794 -2.420591,1.25699 l -6.487758,-2.71757 0.01029,0.0405 -4.322162,5.55847 c -1.065948,1.37098 -2.568319,0.84803 -2.72568,0.0934 l -3.91555,-18.77635 6.689061,-2.67087 -0.02,-0.0738 z"
         style="fill:#67c2e5;fill-opacity:1;stroke:none;stroke-width:0.14437224px;stroke-linecap:butt;stroke-linejoin:miter;stroke-opacity:1" />
      <path
         inkscape:connector-curvature="0"
         id="rect6863-4"
         d="m 72.013777,306.79555 -5.20836,16.46456 1.4575,1.87417 5.571061,-17.61194 z"
         style="opacity:1;fill:#9bcffd;fill-opacity:1;stroke:none;stroke-width:0.18195051;stroke-miterlimit:4;stroke-dasharray:none;stroke-opacity:1" />
      <path
         inkscape:connector-curvature="0"
         id="rect6863-76-3"
         d="m 72.013777,306.79555 -5.20836,16.46456 0.30146,0.38758 5.283299,-16.7017 z"
         style="opacity:1;fill:#044989;fill-opacity:1;stroke:none;stroke-width:0.18195051;stroke-miterlimit:4;stroke-dasharray:none;stroke-opacity:1" />
      <g
         transform="matrix(0.47121319,-0.26607085,0.26607085,0.47121319,-644.29375,517.46701)"
         id="g7012"
         style="stroke-width:1.00834548">
        <path
           style="opacity:1;fill:#9bcffd;fill-opacity:1;stroke:none;stroke-width:0.33623379;stroke-miterlimit:4;stroke-dasharray:none;stroke-opacity:1"
           d="m 1358.4514,320.10195 -10.5404,33.32096 4.3677,-1.82934 9.8072,-31.0038 z"
           id="rect6863-40"
           inkscape:connector-curvature="0" />
        <path
           style="opacity:1;fill:#9bcffd;fill-opacity:1;stroke:none;stroke-width:0.33623379;stroke-miterlimit:4;stroke-dasharray:none;stroke-opacity:1"
           d="m 1367.685,322.51524 -9.6247,30.42554 2.6933,3.46334 10.295,-32.54581 z"
           id="rect6863-4-5"
           inkscape:connector-curvature="0" />
        <path
           style="opacity:1;fill:#044989;fill-opacity:1;stroke:none;stroke-width:0.33623379;stroke-miterlimit:4;stroke-dasharray:none;stroke-opacity:1"
           d="m 1367.685,322.51524 -9.6247,30.42554 0.557,0.71623 9.7633,-30.86375 z"
           id="rect6863-76-3-9"
           inkscape:connector-curvature="0" />
        <path
           style="opacity:1;fill:#044989;fill-opacity:1;stroke:none;stroke-width:0.33623379;stroke-miterlimit:4;stroke-dasharray:none;stroke-opacity:1"
           d="m 1358.4514,320.10195 -10.5404,33.32096 0.9033,-0.37828 10.389,-32.84191 z"
           id="rect6863-76-4"
           inkscape:connector-curvature="0" />
      </g>
      <ellipse
         ry="18.390818"
         rx="17.70817"
         cy="294.39169"
         cx="76.714127"
         id="path4652-3-6-5-9"
         style="fill:#b3e7fc;fill-opacity:1;stroke:none;stroke-width:0.43390524;stroke-miterlimit:4;stroke-dasharray:none" />
      <path
         inkscape:connector-curvature="0"
         id="rect6863-76"
         d="m 67.017107,305.48961 -5.70389,18.0314 0.48882,-0.2047 5.62195,-17.77217 z"
         style="opacity:1;fill:#044989;fill-opacity:1;stroke:none;stroke-width:0.18195051;stroke-miterlimit:4;stroke-dasharray:none;stroke-opacity:1" />
      <path
         inkscape:connector-curvature="0"
         id="rect6572-6-4-3-3-3"
         d="m 73.730507,275.30743 v 7.94942 l -3.97485,-6.88454 -5.16753,2.98352 3.97485,6.88482 -6.88454,-3.97486 -2.983521,5.16753 6.884541,3.97485 h -7.949691 v 5.96703 h 7.949691 l -6.884811,3.97485 2.983521,5.16753 6.88481,-3.97485 -3.97485,6.88454 5.16753,2.98351 3.97485,-6.88453 v 7.9497 h 5.967029 v -7.9497 l 3.974852,6.88481 5.16781,-2.98379 -3.97486,-6.88454 6.884538,3.97485 2.983521,-5.16753 -6.88454,-3.97485 h 7.949711 v -5.96703 h -7.949992 l 6.884821,-3.97485 -2.983521,-5.16753 -6.885098,3.97514 3.975139,-6.8851 -5.167529,-2.98352 -3.974852,6.88454 v -7.94942 z"
         style="opacity:1;fill:#f85959;fill-opacity:1;stroke:none;stroke-width:0.1445996;stroke-miterlimit:4;stroke-dasharray:none;stroke-opacity:1" />
      <ellipse
         ry="16.973024"
         rx="16.343004"
         cy="294.39169"
         cx="76.714127"
         id="path4652-3-6-5"
         style="fill:#044989;fill-opacity:1;stroke:none;stroke-width:0.40045449;stroke-miterlimit:4;stroke-dasharray:none" />
      <path
         inkscape:connector-curvature="0"
         id="path6355"
         d="m 65.368047,256.78693 0.013,0.0123 h 11.330612 11.330879 l 0.01791,-0.0162 V 209.17715 H 76.711967 65.368207 Z"
         style="fill:#67c2e5;fill-opacity:1;stroke-width:0.66952741" />
      <path
         inkscape:connector-curvature="0"
         id="path4652-3-6-5-6-4"
         d="m 76.714018,277.41874 a 16.343005,16.973025 0 0 0 -16.342912,16.97295 16.343005,16.973025 0 0 0 4.164161,11.28724 16.824947,17.473546 0 0 1 -2.53999,-9.21061 16.824947,17.473546 0 0 1 16.825009,-17.47351 16.824947,17.473546 0 0 1 8.097642,2.15884 16.343005,16.973025 0 0 0 -10.20391,-3.73491 z"
         style="fill:#022c52;fill-opacity:1;stroke:none;stroke-width:0.40045449;stroke-miterlimit:4;stroke-dasharray:none" />
      <path
         inkscape:connector-curvature="0"
         id="path6409-9-7"
         d="m 76.714018,277.41874 a 16.343005,16.973025 0 0 0 -5.532461,1.01902 9.5723728,9.5723728 0 0 0 9.5529,9.01905 9.5723728,9.5723728 0 0 0 8.0747,-4.45164 16.343005,16.973025 0 0 0 -12.095139,-5.58643 z m -6.939901,1.62668 a 16.343005,16.973025 0 0 0 -7.89881,8.27605 9.5723728,9.5723728 0 0 0 7.89881,-8.27605 z m 10.96034,9.83254 a 9.5723728,9.5723728 0 0 0 -9.57248,9.57247 9.5723728,9.5723728 0 0 0 9.57248,9.57219 9.5723728,9.5723728 0 0 0 9.572181,-9.57219 9.5723728,9.5723728 0 0 0 -9.572181,-9.57247 z m -19.476601,0.0512 a 16.343005,16.973025 0 0 0 -0.88675,5.46255 16.343005,16.973025 0 0 0 4.978211,12.17259 9.5723728,9.5723728 0 0 0 4.50366,-8.11385 9.5723728,9.5723728 0 0 0 -8.595121,-9.52129 z"
         style="opacity:1;fill:#eeeeee;fill-opacity:1;stroke:none;stroke-width:0.16276017;stroke-miterlimit:4;stroke-dasharray:none;stroke-opacity:1" />
      <g
         transform="matrix(0.54114283,0,0,0.54114283,-650.77389,133.74387)"
         id="g6812"
         style="stroke-width:1.00834548">
        <path
           style="font-style:normal;font-variant:normal;font-weight:800;font-stretch:normal;font-size:22.57777786px;line-height:1.25;font-family:'Open Sans';-inkscape-font-specification:'Open Sans Ultra-Bold';letter-spacing:0px;word-spacing:0px;fill:#b28200;fill-opacity:1;stroke:none;stroke-width:0.4523288"
           d="m 1342.5644,277.69613 c -3.8315,0 -7.1682,0.82118 -10.011,2.46324 -2.825,1.62439 -4.997,3.95521 -6.5154,6.99211 -1.501,3.03691 -2.2512,6.55919 -2.2512,10.56718 0,6.4093 1.5537,11.30892 4.6613,14.69895 3.1252,3.39003 7.6097,5.08503 13.4541,5.08503 4.0787,0 7.7339,-0.71497 10.9648,-2.14515 v -8.84616 c -1.6244,0.67095 -3.2398,1.2448 -4.8463,1.72152 -1.6069,0.47672 -3.2669,0.71521 -4.9795,0.71521 -5.6679,0 -8.5017,-3.72536 -8.5017,-11.17637 0,-3.58426 0.6973,-6.39154 2.0922,-8.42205 1.395,-2.04814 3.3372,-3.07242 5.8266,-3.07242 1.6421,0 3.1782,0.22963 4.6084,0.6887 1.4303,0.45907 2.8603,1.02407 4.2904,1.69501 l 3.205,-8.23697 c -3.8139,-1.81862 -7.8132,-2.72783 -11.9977,-2.72783 z m 16.3575,12.48026 -9.3828,7.64481 3.8316,4.70992 3.103,-2.56077 c 0.6852,-0.61059 1.2585,-1.1963 1.7195,-1.75703 -0.075,1.45789 -0.112,3.06549 -0.112,4.82246 v 14.46686 h 7.4952 v -27.32625 z"
           id="path6472-8"
           inkscape:connector-curvature="0" />
        <path
           style="font-style:normal;font-variant:normal;font-weight:800;font-stretch:normal;font-size:22.57777786px;line-height:1.25;font-family:'Open Sans';-inkscape-font-specification:'Open Sans Ultra-Bold';letter-spacing:0px;word-spacing:0px;fill:#f7cb01;fill-opacity:1;stroke:none;stroke-width:0.4523288"
           d="m 1341.911,276.23276 c -3.8314,0 -7.1681,0.82119 -10.011,2.46324 -2.825,1.6244 -4.9969,3.95521 -6.5154,6.99212 -1.5009,3.0369 -2.2512,6.55919 -2.2512,10.56718 0,6.40929 1.5538,11.30891 4.6614,14.69895 3.1252,3.39003 7.6097,5.08502 13.4541,5.08502 4.0787,0 7.7338,-0.71496 10.9648,-2.14514 v -8.84617 c -1.6244,0.67096 -3.2398,1.24481 -4.8464,1.72152 -1.6068,0.47673 -3.2669,0.71521 -4.9795,0.71521 -5.6678,0 -8.5017,-3.72536 -8.5017,-11.17637 0,-3.58426 0.6973,-6.39154 2.0922,-8.42204 1.395,-2.04814 3.3373,-3.07243 5.8267,-3.07243 1.6421,0 3.1781,0.22964 4.6084,0.68871 1.4303,0.45907 2.8602,1.02407 4.2904,1.69501 l 3.2049,-8.23698 c -3.8139,-1.81862 -7.8132,-2.72783 -11.9977,-2.72783 z m 16.3575,12.48026 -9.3827,7.64482 3.8316,4.70991 3.1029,-2.56077 c 0.6853,-0.61058 1.2585,-1.1963 1.7195,-1.75702 -0.075,1.45789 -0.112,3.06548 -0.112,4.82245 v 14.46686 h 7.4952 v -27.32625 z"
           id="path6472"
           inkscape:connector-curvature="0" />
      </g>
      <path
         inkscape:connector-curvature="0"
         id="path6409-9-7-8"
         d="m 76.714018,277.41874 a 16.343005,16.973025 0 0 0 -5.338391,0.95107 16.343005,16.973025 0 0 0 -0.19351,0.0733 9.5723728,9.5723728 0 0 0 0.420029,2.26036 16.824947,17.473546 0 0 1 7.21814,-1.70862 16.824947,17.473546 0 0 1 8.014582,2.11494 16.343005,16.973025 0 0 0 -0.188762,-0.16052 16.343005,16.973025 0 0 0 -0.656878,-0.49329 16.343005,16.973025 0 0 0 -0.68597,-0.47231 16.343005,16.973025 0 0 0 -0.701061,-0.42282 16.343005,16.973025 0 0 0 -0.724551,-0.3971 16.343005,16.973025 0 0 0 -0.743849,-0.35067 16.343005,16.973025 0 0 0 -0.75392,-0.31768 16.343005,16.973025 0 0 0 -0.77797,-0.27321 16.343005,16.973025 0 0 0 -0.778809,-0.23741 16.343005,16.973025 0 0 0 -0.79783,-0.19072 16.343005,16.973025 0 0 0 -0.802291,-0.15604 16.343005,16.973025 0 0 0 -0.80676,-0.10655 16.343005,16.973025 0 0 0 -0.906891,-0.0805 16.343005,16.973025 0 0 0 -0.795308,-0.0322 z m -6.940191,1.62864 a 16.343005,16.973025 0 0 0 -0.0366,0.0185 16.343005,16.973025 0 0 0 -1.38759,0.76762 16.343005,16.973025 0 0 0 -0.0425,0.0268 16.343005,16.973025 0 0 0 -1.3216,0.91807 16.343005,16.973025 0 0 0 -0.0271,0.0215 16.343005,16.973025 0 0 0 -1.23323,1.05566 16.343005,16.973025 0 0 0 -0.0274,0.0266 16.343005,16.973025 0 0 0 -1.1211,1.17366 16.343005,16.973025 0 0 0 -0.0319,0.0375 16.343005,16.973025 0 0 0 -0.99357,1.2721 16.343005,16.973025 0 0 0 -0.04,0.0584 16.343005,16.973025 0 0 0 -0.85542,1.3518 16.343005,16.973025 0 0 0 -0.0428,0.0775 16.343005,16.973025 0 0 0 -0.71197,1.41555 16.343005,16.973025 0 0 0 -0.0224,0.052 9.5723728,9.5723728 0 0 0 3.52071,-1.35431 16.824947,17.473546 0 0 1 3.18933,-3.35405 9.5723728,9.5723728 0 0 0 1.18512,-3.56489 z m -8.51205,9.88232 a 16.343005,16.973025 0 0 0 -0.0305,0.0951 16.343005,16.973025 0 0 0 -0.3862,1.38983 16.343005,16.973025 0 0 0 -0.0794,0.36661 16.343005,16.973025 0 0 0 -0.21448,1.21757 16.343005,16.973025 0 0 0 -0.0677,0.57886 16.343005,16.973025 0 0 0 -0.09,1.15437 16.343005,16.973025 0 0 0 -0.0224,0.65968 16.343005,16.973025 0 0 0 3.93234,11.01067 16.343005,16.973025 0 0 0 0.20666,0.22959 16.824947,17.473546 0 0 1 -2.51483,-9.16363 16.824947,17.473546 0 0 1 1.43904,-7.04338 9.5723728,9.5723728 0 0 0 -2.17254,-0.49524 z"
         style="opacity:1;fill:#c9c9c9;fill-opacity:1;stroke:none;stroke-width:0.16276017;stroke-miterlimit:4;stroke-dasharray:none;stroke-opacity:1" />
    </g>
  </g>
</svg>
