<?xml version="1.0" encoding="UTF-8" standalone="no"?>
<!-- Created with Inkscape (http://www.inkscape.org/) -->

<svg
   xmlns:dc="http://purl.org/dc/elements/1.1/"
   xmlns:cc="http://creativecommons.org/ns#"
   xmlns:rdf="http://www.w3.org/1999/02/22-rdf-syntax-ns#"
   xmlns:svg="http://www.w3.org/2000/svg"
   xmlns="http://www.w3.org/2000/svg"
   xmlns:sodipodi="http://sodipodi.sourceforge.net/DTD/sodipodi-0.dtd"
   xmlns:inkscape="http://www.inkscape.org/namespaces/inkscape"
   width="240"
   height="430"
   viewBox="0 0 63.499999 113.77084"
   version="1.1"
   id="svg2395"
   inkscape:version="0.92.5 (2060ec1f9f, 2020-04-08)"
   sodipodi:docname="css.svg">
  <defs
     id="defs2389" />
  <sodipodi:namedview
     id="base"
     pagecolor="#ffffff"
     bordercolor="#666666"
     borderopacity="1.0"
     inkscape:pageopacity="0.0"
     inkscape:pageshadow="2"
     inkscape:zoom="1.2140297"
     inkscape:cx="123.70666"
     inkscape:cy="215"
     inkscape:document-units="px"
     inkscape:current-layer="layer1"
     showgrid="false"
     units="px"
     inkscape:window-width="1294"
     inkscape:window-height="704"
     inkscape:window-x="72"
     inkscape:window-y="27"
     inkscape:window-maximized="1" />
  <metadata
     id="metadata2392">
    <rdf:RDF>
      <cc:Work
         rdf:about="">
        <dc:format>image/svg+xml</dc:format>
        <dc:type
           rdf:resource="http://purl.org/dc/dcmitype/StillImage" />
        <dc:title></dc:title>
      </cc:Work>
    </rdf:RDF>
  </metadata>
  <g
     inkscape:label="Layer 1"
     inkscape:groupmode="layer"
     id="layer1"
     transform="translate(0,-183.22915)">
    <g
       id="g3153"
       transform="matrix(0.99173323,0,0,0.99173323,-43.033214,36.347121)"
       style="stroke-width:1.00833571">
      <path
         inkscape:connector-curvature="0"
         id="path5519-6-9-9"
         d="m 50.793348,206.99126 c 5.502721,-0.23181 11.01649,0.0662 16.524731,-0.0276 6.076729,-0.19318 12.147941,-0.0331 18.23019,-0.011 4.823849,0.011 9.647701,-0.0221 14.471561,0.0166 -1.517801,16.73998 -3.046651,33.47997 -4.45406,50.23099 -6.46308,1.83791 -12.93168,3.64825 -19.39476,5.47513 -0.827892,0.34219 -1.677861,0.0221 -2.47264,-0.19318 -6.142961,-1.76616 -12.285921,-3.51578 -18.439922,-5.21572 -1.60059,-16.7455 -3.10736,-33.50755 -4.4651,-50.27514"
         style="fill:#85b6fb;fill-opacity:1;stroke-width:0.55652887" />
      <g
         transform="matrix(0.3401531,0,0,0.3401531,-145.4572,189.48531)"
         id="g6022"
         style="stroke-width:1.00833571">
        <g
           transform="matrix(0.35277777,0,0,0.35277777,589.02609,32.384469)"
           id="#0170baff"
           style="fill:#2359a6;fill-opacity:1;stroke-width:1.00833571">
          <path
             style="opacity:1;fill:#2359a6;fill-opacity:1;stroke-width:1.00833571"
             inkscape:connector-curvature="0"
             d="m 0,92.46 c 113.92,-0.01 227.83,-0.02 341.75,0 -6.27,70.85 -12.44,141.7 -18.97,212.53 -3.88,45.27 -7.88,90.54 -12.1,135.78 -24.31,6.44 -48.38,13.78 -72.68,20.25 -22.32,6.55 -44.82,12.48 -67.15,18.98 h -0.66 C 148.94,473.68 127.48,468.12 106.23,461.8 81.15,455.04 56.29,447.5 31.2,440.77 27.93,406.86 24.98,372.93 22.07,339 16.58,276.31 10.61,213.66 5.33,150.96 3.5,132.09 2.19,113.16 0,94.33 v -1.87 m 171.41,27.95 c -0.24,13.61 0.18,27.23 -0.24,40.83 -39.08,-0.14 -78.17,-0.03 -117.25,0.01 0.67,13.21 2.44,26.33 4.26,39.43 36.36,1.35 72.77,-0.05 109.13,1.04 -31.81,14.27 -64.01,27.71 -95.96,41.68 -2.74,1.22 -5.67,2.14 -8.12,3.92 0.27,14.51 2.61,28.94 3.64,43.42 19.38,-0.07 38.75,-0.38 58.13,-0.41 15.53,-0.08 31.07,0.23 46.6,-0.11 -0.74,23.86 0.23,47.75 -0.5,71.61 -10.45,-1.55 -20.77,-3.88 -31.18,-5.73 -8.21,-1.79 -16.62,-2.72 -24.71,-5.07 -1.15,-11.45 -1.95,-22.94 -2.97,-34.4 -2.34,-0.72 -4.82,-0.65 -7.24,-0.69 -11.74,0.07 -23.49,-0.04 -35.24,0.14 1.15,22.03 3.13,44.03 6.5,65.85 11.58,3.02 23.18,5.98 34.74,9.13 17.71,4.82 35.64,8.83 53.38,13.57 2.11,0.45 4.24,1.23 6.43,1.05 1.18,14.49 0.27,29.07 0.49,43.6 4.09,-0.66 8.11,-1.67 12.06,-2.89 33.58,-9.12 67.12,-18.41 100.68,-27.62 1.67,-13.2 2.45,-26.49 3.77,-39.72 3.49,-40.22 7.01,-80.44 10.67,-120.65 4.29,-46 8,-92.05 12.32,-138.05 -46.47,0.04 -92.93,-0.09 -139.39,0.06 z"
             id="path9" />
        </g>
        <g
           transform="matrix(0.35277777,0,0,0.35277777,589.02609,32.384469)"
           id="#29a9dfff"
           style="fill:#449dd7;fill-opacity:1;stroke-width:1.00833571">
          <path
             style="opacity:1;fill:#449dd7;fill-opacity:1;stroke-width:1.00833571"
             inkscape:connector-curvature="0"
             d="m 171.41,120.41 c 46.46,-0.15 92.92,-0.02 139.39,-0.06 -4.32,46 -8.03,92.05 -12.32,138.05 -3.66,40.21 -7.18,80.43 -10.67,120.65 -1.32,13.23 -2.1,26.52 -3.77,39.72 -33.56,9.21 -67.1,18.5 -100.68,27.62 -3.95,1.22 -7.97,2.23 -12.06,2.89 -0.22,-14.53 0.69,-29.11 -0.49,-43.6 0.3,-0.06 0.91,-0.18 1.21,-0.24 31.23,-7.84 62.25,-16.47 93.41,-24.59 3.94,-44.2 8.31,-88.38 11.08,-132.67 -26.5,0.14 -53.01,0.06 -79.51,0.17 -3.86,0.02 -7.72,0 -11.56,-0.28 14.26,-7.34 29.26,-13.16 43.9,-19.71 14.05,-6.37 28.27,-12.34 42.37,-18.59 2.72,-1.25 5.62,-2.29 8.01,-4.15 0.94,-3.45 0.89,-7.06 1.26,-10.59 0.81,-11.2 2.25,-22.34 2.79,-33.55 -37.53,-0.3 -75.06,-0.04 -112.6,-0.24 0.42,-13.6 0,-27.22 0.24,-40.83 z"
             id="path12" />
          <path
             style="opacity:1;fill:#449dd7;fill-opacity:1;stroke-width:1.00833571"
             inkscape:connector-curvature="0"
             d="m 171.6,290.22 c 18.12,-0.31 36.25,0.18 54.38,0.06 -1.01,18.53 -2.55,37.03 -3.51,55.56 -11.11,3.63 -22.39,6.7 -33.59,10.06 -5.97,1.82 -12.1,3.26 -17.78,5.93 0.73,-23.86 -0.24,-47.75 0.5,-71.61 z"
             id="path14" />
        </g>
        <g
           transform="matrix(0.35277777,0,0,0.35277777,589.02609,32.384469)"
           id="#cfcfcfff"
           style="fill:#ececee;fill-opacity:1;stroke-width:1.00833571">
          <path
             id="path19"
             style="opacity:1;fill:#ececee;fill-opacity:1;stroke-width:1.00833571"
             d="m 69.76,316.08 c 11.75,-0.18 23.5,-0.07 35.24,-0.14 2.42,0.04 4.9,-0.03 7.24,0.69 1.02,11.46 1.82,22.95 2.97,34.4 8.09,2.35 16.5,3.28 24.71,5.07 10.41,1.85 20.73,4.18 31.18,5.73 1,14.52 -0.75,29.14 0.92,43.61 -0.3,0.06 -0.91,0.18 -1.21,0.24 -2.19,0.18 -4.32,-0.6 -6.43,-1.05 -17.74,-4.74 -35.67,-8.75 -53.38,-13.57 -11.56,-3.15 -23.16,-6.11 -34.74,-9.13 -3.37,-21.82 -5.35,-43.82 -6.5,-65.85 z M 53.92,161.25 c 39.08,-0.04 78.17,-0.15 117.25,-0.01 0.51,43 -0.13,86 0.43,128.98 -15.53,0.34 -31.07,0.03 -46.6,0.11 -19.38,0.03 -38.75,0.34 -58.13,0.41 -1.03,-14.48 -3.37,-28.90986 -3.64,-43.41986 2.45,-1.78 5.38,-2.70014 8.12,-3.92014 31.95,-13.97 64.15,-27.41 95.96,-41.68 -36.36,-1.09 -72.77,0.31 -109.13,-1.04 -1.82,-13.1 -3.59,-26.22 -4.26,-39.43 z"
             inkscape:connector-curvature="0"
             sodipodi:nodetypes="cccccccccccccccccccccc" />
        </g>
        <g
           transform="matrix(0.35277777,0,0,0.35277777,589.02609,32.384469)"
           id="#ffffffff"
           style="stroke-width:1.00833571">
          <path
             style="opacity:1;fill:#ffffff;stroke-width:1.00833571"
             inkscape:connector-curvature="0"
             d="m 171.17,161.24 c 37.54,0.2 75.07,-0.06 112.6,0.24 -0.54,11.21 -1.98,22.35 -2.79,33.55 -0.37,3.53 -0.32,7.14 -1.26,10.59 -2.39,1.86 -5.29,2.9 -8.01,4.15 -14.1,6.25 -28.32,12.22 -42.37,18.59 -14.64,6.55 -29.64,12.37 -43.9,19.71 3.84,0.28 7.7,0.3 11.56,0.28 26.5,-0.11 53.01,-0.03 79.51,-0.17 -2.77,44.29 -7.14,88.47 -11.08,132.67 -31.16,8.12 -62.18,16.75 -93.41,24.59 -1.67,-14.47 0.08,-29.09 -0.92,-43.61 5.68,-2.67 11.81,-4.11 17.78,-5.93 11.2,-3.36 22.48,-6.43 33.59,-10.06 0.96,-18.53 2.5,-37.03 3.51,-55.56 -18.13,0.12 -36.26,-0.37 -54.38,-0.06 -0.56,-42.98 0.08,-85.98 -0.43,-128.98 z"
             id="path22" />
        </g>
        <path
           style="opacity:1;fill:#f2f1f2;fill-opacity:1;stroke:none;stroke-width:0.28584784;stroke-miterlimit:4;stroke-dasharray:none"
           d="m 628.72935,89.244217 c -6.89415,0.0053 -13.78816,0.01878 -20.68143,0.02582 0.23636,4.660196 0.86072,9.288356 1.50276,13.909753 12.827,0.47625 25.67143,-0.0176 38.49843,0.3669 -11.22187,5.03414 -22.58097,9.7757 -33.85222,14.70401 -0.9666,0.43039 -2.00062,0.75492 -2.86493,1.38286 h 38.14548 c -0.005,-10.12097 0.0539,-20.244068 -0.0661,-30.36714 -6.89326,-0.02471 -13.78778,-0.02751 -20.68194,-0.02223 z"
           id="rect5983"
           inkscape:connector-curvature="0" />
        <path
           inkscape:connector-curvature="0"
           id="path6006"
           d="m 613.63586,143.89048 c 4.14514,-0.0635 8.29027,-0.0247 12.43189,-0.0494 0.85372,0.0141 1.72861,-0.0106 2.55411,0.24341 0.35983,4.04284 0.64205,8.09625 1.04775,12.13556 2.85397,0.82903 5.82083,1.15711 8.71714,1.78858 3.67241,0.65264 7.31308,1.47461 10.99961,2.02142 0.35277,5.12233 -0.26459,10.27994 0.32455,15.38464 -0.10583,0.0212 -0.32103,0.0635 -0.42686,0.0847 -0.77258,0.0635 -1.524,-0.21167 -2.26836,-0.37042 -6.25828,-1.67217 -12.58358,-3.0868 -18.83128,-4.78719 -4.07811,-1.11125 -8.17033,-2.15547 -12.2555,-3.22086 -1.18886,-7.69761 -1.88736,-15.45873 -2.29305,-23.23042 z"
           style="opacity:1;fill:#f2f1f2;fill-opacity:1;stroke-width:0.35571843" />
      </g>
      <path
         inkscape:connector-curvature="0"
         id="rect4656-9-9-2-1"
         d="m 70.015399,196.80196 c -1.26381,0 -2.28228,1.01723 -2.28228,2.28104 v 1.78028 c 0,1.26381 1.01847,2.28103 2.28228,2.28103 h 1.776521 v 3.88769 h 7.22934 v -3.88769 h 1.776508 c 1.263812,0 2.282291,-1.01722 2.282291,-2.28103 V 199.083 c 0,-1.26381 -1.018479,-2.28104 -2.282291,-2.28104 z"
         style="fill:#85b6fb;fill-opacity:1;stroke:none;stroke-width:0.58759898;stroke-miterlimit:4;stroke-dasharray:none" />
      <path
         inkscape:connector-curvature="0"
         id="rect942-2-6-4"
         d="m 43.658398,148.12139 v 28.66567 l 20.417321,18.95646 h 11.33087 11.330861 l 20.41732,-18.95646 V 148.12139 H 75.406589 Z"
         style="fill:#40332d;fill-opacity:1;stroke-width:0.66952091" />
      <path
         sodipodi:nodetypes="ccccc"
         inkscape:connector-curvature="0"
         id="rect5385-7-1-7"
         d="m 50.752948,148.10639 h 13.309921 v 47.62053 L 50.752948,183.35751 Z"
         style="fill:#9eb9df;fill-opacity:1;stroke:none;stroke-width:0.1445982;stroke-miterlimit:4;stroke-dasharray:none" />
      <path
         sodipodi:nodetypes="ccccc"
         inkscape:connector-curvature="0"
         id="rect5385-1-0-2-8"
         d="M 100.06479,148.10639 H 86.75487 v 47.62053 l 13.30992,-12.36941 z"
         style="fill:#9eb9df;fill-opacity:1;stroke:none;stroke-width:0.1445982;stroke-miterlimit:4;stroke-dasharray:none" />
    </g>
  </g>
</svg>
