<?xml version="1.0" encoding="UTF-8" standalone="no"?>
<!-- Created with Inkscape (http://www.inkscape.org/) -->

<svg
   xmlns:dc="http://purl.org/dc/elements/1.1/"
   xmlns:cc="http://creativecommons.org/ns#"
   xmlns:rdf="http://www.w3.org/1999/02/22-rdf-syntax-ns#"
   xmlns:svg="http://www.w3.org/2000/svg"
   xmlns="http://www.w3.org/2000/svg"
   xmlns:sodipodi="http://sodipodi.sourceforge.net/DTD/sodipodi-0.dtd"
   xmlns:inkscape="http://www.inkscape.org/namespaces/inkscape"
   width="610"
   height="340"
   viewBox="0 0 161.39583 89.958336"
   version="1.1"
   id="svg2978"
   inkscape:version="0.92.5 (2060ec1f9f, 2020-04-08)"
   sodipodi:docname="git.svg">
  <defs
     id="defs2972" />
  <sodipodi:namedview
     id="base"
     pagecolor="#ffffff"
     bordercolor="#666666"
     borderopacity="1.0"
     inkscape:pageopacity="0.0"
     inkscape:pageshadow="2"
     inkscape:zoom="0.35"
     inkscape:cx="-110"
     inkscape:cy="560"
     inkscape:document-units="px"
     inkscape:current-layer="layer1"
     showgrid="false"
     units="px"
     inkscape:window-width="1294"
     inkscape:window-height="704"
     inkscape:window-x="72"
     inkscape:window-y="27"
     inkscape:window-maximized="1" />
  <metadata
     id="metadata2975">
    <rdf:RDF>
      <cc:Work
         rdf:about="">
        <dc:format>image/svg+xml</dc:format>
        <dc:type
           rdf:resource="http://purl.org/dc/dcmitype/StillImage" />
        <dc:title></dc:title>
      </cc:Work>
    </rdf:RDF>
  </metadata>
  <g
     inkscape:label="Layer 1"
     inkscape:groupmode="layer"
     id="layer1"
     transform="translate(0,-207.04165)">
    <g
       id="g3569"
       transform="matrix(0.99770723,0,0,0.99770723,-49.027779,271.71961)"
       style="stroke-width:1.002298">
      <path
         transform="matrix(0.29714219,-0.00543784,0.00543784,0.29714219,-34.112903,-58.119019)"
         inkscape:transform-center-y="-0.97103285"
         inkscape:transform-center-x="0.0041634026"
         d="m 456.58548,46.546288 4.14089,-21.904447 -15.69682,-15.8291351 22.11197,-2.8306217 10.20382,-19.8200382 9.52505,20.1550255 22.00313,3.579678 -16.22516,15.2871125 3.39486,22.032402 -19.55276,-10.707071 z"
         inkscape:randomized="0"
         inkscape:rounded="0"
         inkscape:flatsided="false"
         sodipodi:arg2="2.8444113"
         sodipodi:arg1="2.2160928"
         sodipodi:r2="16.784801"
         sodipodi:r1="33.569603"
         sodipodi:cy="19.72681"
         sodipodi:cx="476.77542"
         sodipodi:sides="5"
         id="path6124-6"
         style="opacity:1;fill:#846613;fill-opacity:1;stroke:none;stroke-width:0.26560897;stroke-miterlimit:4;stroke-dasharray:none"
         sodipodi:type="star" />
      <path
         transform="matrix(0.29714219,-0.00543784,0.00543784,0.29714219,-12.836323,-58.119029)"
         inkscape:transform-center-y="-0.9710328"
         inkscape:transform-center-x="0.0041705644"
         d="m 456.58548,46.546288 4.14089,-21.904447 -15.69682,-15.8291351 22.11197,-2.8306217 10.20382,-19.8200382 9.52505,20.1550255 22.00313,3.579678 -16.22516,15.2871125 3.39486,22.032402 -19.55276,-10.707071 z"
         inkscape:randomized="0"
         inkscape:rounded="0"
         inkscape:flatsided="false"
         sodipodi:arg2="2.8444113"
         sodipodi:arg1="2.2160928"
         sodipodi:r2="16.784801"
         sodipodi:r1="33.569603"
         sodipodi:cy="19.72681"
         sodipodi:cx="476.77542"
         sodipodi:sides="5"
         id="path6124-4-3"
         style="opacity:1;fill:#846613;fill-opacity:1;stroke:none;stroke-width:0.26560897;stroke-miterlimit:4;stroke-dasharray:none"
         sodipodi:type="star" />
      <path
         transform="matrix(0.29714219,-0.00543784,0.00543784,0.29714219,8.7936268,-58.119029)"
         inkscape:transform-center-y="-0.9710328"
         inkscape:transform-center-x="0.0041661612"
         d="m 456.58548,46.546288 4.14089,-21.904447 -15.69682,-15.8291351 22.11197,-2.8306217 10.20382,-19.8200382 9.52505,20.1550255 22.00313,3.579678 -16.22516,15.2871125 3.39486,22.032402 -19.55276,-10.707071 z"
         inkscape:randomized="0"
         inkscape:rounded="0"
         inkscape:flatsided="false"
         sodipodi:arg2="2.8444113"
         sodipodi:arg1="2.2160928"
         sodipodi:r2="16.784801"
         sodipodi:r1="33.569603"
         sodipodi:cy="19.72681"
         sodipodi:cx="476.77542"
         sodipodi:sides="5"
         id="path6124-4-5-2"
         style="opacity:1;fill:#846613;fill-opacity:1;stroke:none;stroke-width:0.26560897;stroke-miterlimit:4;stroke-dasharray:none"
         sodipodi:type="star" />
      <path
         inkscape:connector-curvature="0"
         id="path6116-0"
         d="m 127.73177,23.667391 c -2.10672,-3.07386 -4.53872,-7.01676 -10.68887,-17.3293996 -3.19033,-5.34959998 -5.82722,-9.75588 -5.85972,-9.79174 -0.0326,-0.0359 -1.39698,-0.17082 -3.03214,-0.29994 -3.44685,-0.27214 -4.08896,-0.53551 -7.95281,-3.26182 -3.71313,-2.61996 -4.741438,-3.4896704 -4.741438,-4.0101904 0,-0.95817 0.697989,-1.13835 5.206158,-1.34401 2.40818,-0.10987 4.48448,-0.30383 4.614,-0.43105 0.13785,-0.13547 0.0393,-0.46927 -0.23812,-0.80576 -0.62912,-0.76308 -3.60076,-1.04836 -11.018649,-1.05779 l -5.529641,-0.007 -3.0486,-2.26952 c -4.99377,-3.71763 -6.15038,-5.04055 -4.706909,-5.3837 0.326769,-0.0777 4.456121,-0.30108 9.176319,-0.49642 4.720212,-0.19536 8.790141,-0.4383 9.0443,-0.53988 0.622501,-0.24881 0.581721,-0.56685 -0.119938,-0.93574 -0.631611,-0.33201 -10.798252,-0.70947 -19.796562,-0.73499 l -5.19488,-0.0146 -3.33264,-2.25454 c -4.75877,-3.2193 -6.41422,-5.09737 -4.97219,-5.64089 0.22518,-0.0849 6.18724,-0.21682 13.248962,-0.29318 7.0617,-0.0764 13.225679,-0.19631 13.69772,-0.26654 1.0551,-0.15699 1.114478,-0.70534 0.144068,-1.33023 -0.658789,-0.42421 -1.996459,-0.46995 -17.24435,-0.58957 l -16.53015,-0.13014 -3.55095,-2.32192 c -3.71647,-2.43018 -6.05956,-4.36252 -6.05956,-4.99733 0,-0.32623 10.44404,-0.36367 80.55016,-0.28872 71.249,0.0762 80.57905,0.13103 80.80052,0.47517 0.67792,1.05345 -0.1182,1.84344 -5.33949,5.29768 l -3.75398,2.48355 h -17.251 -17.25099 l -0.52538,1.2039 c -0.28897,0.66214 -0.49272,1.23389 -0.45276,1.27054 0.0401,0.0367 5.65769,0.14494 12.48382,0.24062 12.16802,0.17058 16.3451,0.39676 16.87126,0.91357 0.43137,0.42372 -0.95535,1.61565 -5.28742,4.54476 l -4.02333,2.72032 -12.09838,0.004 c -6.6541,0.002 -12.35566,0.0713 -12.67013,0.1542 -0.55677,0.14669 -1.078,1.29077 -0.73971,1.62365 0.0916,0.0902 3.61058,0.23896 7.81993,0.33067 8.73958,0.19042 10.27239,0.32784 11.11119,0.99623 l 0.60101,0.47888 -0.63514,0.66517 c -0.3493,0.36584 -2.37511,1.88389 -4.5018,3.37345 l -3.8667,2.70828 -8.05359,0.0853 c -7.17419,0.076 -8.13152,0.13551 -8.76753,0.54519 -0.39272,0.25293 -0.71402,0.67437 -0.71402,0.93651 0,0.59467 1.40701,0.79165 5.94151,0.83187 3.69188,0.0327 4.45946,0.18659 4.56763,0.91539 0.10251,0.6907404 -1.30442,1.9504404 -5.40385,4.8383104 l -3.21288,2.26333 h -3.80598 -3.806 l -2.86736,4.6039 C 136.15188,15.495421 130.2478,24.572891 129.41654,25.250521 c -0.32023,0.26104 -0.60283,-0.004 -1.68463,-1.58296 z"
         style="fill:#c99b1d;fill-opacity:1;stroke-width:0.26231167" />
      <path
         inkscape:connector-curvature="0"
         id="path6116"
         d="m 127.81322,23.697621 c -2.03183,-3.01824 -4.37739,-6.88981 -10.30896,-17.0158596 -3.07693,-5.25281 -5.6201,-9.57937 -5.65144,-9.61458 -0.0315,-0.0352 -1.34733,-0.16773 -2.92437,-0.29452 -3.32434,-0.26722 -3.94364,-0.52582 -7.67015,-3.2028 -3.581149,-2.57255 -4.57291,-3.42653 -4.57291,-3.9376304 0,-0.94084 0.673171,-1.11776 5.02112,-1.3197 2.32259,-0.10787 4.32509,-0.29833 4.45,-0.42324 0.13296,-0.13302 0.0379,-0.46079 -0.22966,-0.79119 -0.60675,-0.74927 -3.47277,-1.02939 -10.627009,-1.03865 l -5.3331,-0.007 -2.940241,-2.22845 c -4.816279,-3.65037 -5.931778,-4.94935 -4.53962,-5.2863 0.31515,-0.0763 4.297741,-0.29563 8.850169,-0.48744 4.552443,-0.19182 8.477711,-0.43036 8.722841,-0.53011 0.60038,-0.24431 0.56104,-0.55659 -0.11568,-0.91881 -0.609158,-0.326 -10.41445,-0.69663 -19.092939,-0.72169 l -5.01024,-0.0144 -3.214181,-2.21375 c -4.58963,-3.16107 -6.18624,-5.00517 -4.79547,-5.53885 0.21718,-0.0833 5.96733,-0.21289 12.778061,-0.28788 6.810709,-0.075 12.755589,-0.19276 13.210861,-0.26171 1.017598,-0.15415 1.074869,-0.69258 0.138948,-1.30616 -0.63537,-0.41654 -1.9255,-0.46145 -16.63143,-0.57891 l -15.94262,-0.12734 -3.42475,-2.27991 c -3.58437,-2.38621 -5.84418,-4.28358 -5.84418,-4.9069 0,-0.32034 10.07283,-0.3571 77.68718,-0.28351 68.71661,0.0748 77.71504,0.12866 77.92864,0.46658 0.65383,1.03439 -0.114,1.81009 -5.1497,5.20183 l -3.62056,2.43862 h -16.63785 -16.63783 l -0.50672,1.18212 c -0.2787,0.65015 -0.47521,1.21156 -0.43666,1.24754 0.0386,0.036 5.4566,0.14232 12.04011,0.23627 11.73553,0.16749 15.76415,0.38959 16.2716,0.89705 0.41605,0.41605 -0.92139,1.58641 -5.09949,4.46252 l -3.88033,2.67111 -11.66837,0.004 c -6.41759,0.002 -11.9165,0.07 -12.2198,0.15141 -0.53698,0.14404 -1.03968,1.26742 -0.71342,1.59427 0.0883,0.0885 3.48225,0.23464 7.542,0.32469 8.42894,0.18698 9.90728,0.32191 10.71626,0.9782 l 0.57964,0.47023 -0.61255,0.65313 c -0.33689,0.35922 -2.2907,1.84981 -4.3418,3.31241 l -3.72926,2.65928 -7.76735,0.0838 c -6.91919,0.0746 -7.8425,0.13305 -8.45591,0.53532 -0.37876,0.24836 -0.68863,0.66217 -0.68863,0.91958 0,0.58389 1.35699,0.77732 5.73032,0.81682 3.56067,0.0321 4.30096,0.18321 4.40529,0.8988204 0.0989,0.67823 -1.25806,1.91514 -5.21179,4.75077 l -3.09868,2.22237 h -3.67071 -3.67071 l -2.76545,4.52061 c -8.49968,13.8941796 -14.19391,22.8074196 -14.99563,23.4727896 -0.30884,0.25631 -0.5814,-0.004 -1.62475,-1.55432 z"
         style="fill:#253814;fill-opacity:1;stroke-width:0.25526679" />
      <path
         inkscape:connector-curvature="0"
         id="path6116-3"
         d="m 89.573699,-41.596279 c -31.025059,-0.006 -36.630739,0.0734 -36.630739,0.30902 0,0.14428 0.12838,0.36037 0.36521,0.6337 2.14166,-0.23398 16.08077,-0.25738 76.49775,-0.19289 67.98751,0.0726 76.89041,0.12458 77.10174,0.45243 0.0486,0.0753 0.0859,0.14904 0.11741,0.22267 0.14311,-0.3413 0.0794,-0.62734 -0.11741,-0.93615 -0.21133,-0.33146 -9.11423,-0.38463 -77.10174,-0.45798 -16.72423,-0.0181 -29.890521,-0.0289 -40.232221,-0.0308 z m 5.273572,9.10504 c -0.13049,0.10365 -0.343569,0.18277 -0.642961,0.22773 -0.450419,0.0676 -6.332069,0.18345 -13.07052,0.25701 -6.73846,0.0736 -12.42751,0.20051 -12.64237,0.28226 -0.4435,0.16873 -0.57546,0.47289 -0.40468,0.90889 0.0763,-0.12437 0.20977,-0.22407 0.40468,-0.29741 0.21486,-0.0809 5.90391,-0.20648 12.64237,-0.27923 6.738451,-0.0728 12.620101,-0.18708 13.07052,-0.25398 0.758812,-0.11272 0.9775,-0.43739 0.642961,-0.84527 z m 69.708479,1.2684 c -0.1278,0.33179 -0.20591,0.57639 -0.18135,0.59886 0.0381,0.0349 5.39882,0.13809 11.91247,0.22924 11.11493,0.15556 15.23974,0.35986 16.01257,0.80891 0.17531,-0.24662 0.2005,-0.4191 0.0865,-0.5322 -0.50208,-0.49777 -4.48798,-0.71582 -16.099,-0.88011 -6.20642,-0.0878 -11.2252,-0.18501 -11.73112,-0.2247 z m -63.92382,8.58849 c -0.0662,0.0479 -0.14628,0.0943 -0.2543,0.13785 -0.24254,0.0978 -4.12612,0.33193 -8.630249,0.52009 -4.504139,0.18814 -8.444341,0.40332 -8.756139,0.47817 -0.480391,0.11527 -0.650841,0.34923 -0.477592,0.75186 0.0856,-0.11455 0.24546,-0.19688 0.477592,-0.25197 0.311798,-0.074 4.252,-0.28703 8.756139,-0.47312 4.504129,-0.18612 8.387709,-0.41726 8.630249,-0.51403 0.45253,-0.18057 0.53541,-0.39946 0.2543,-0.64885 z m 58.46937,1.14015 c -0.0671,0.24402 -0.061,0.46993 0.0595,0.58826 0.0874,0.0859 3.44504,0.22771 7.46171,0.31508 8.33952,0.18141 9.8022,0.31253 10.60261,0.94928 l 0.31423,0.24995 0.25929,-0.27368 -0.57352,-0.46151 c -0.80041,-0.64376 -2.26309,-0.77598 -10.60261,-0.95939 -4.01667,-0.0883 -7.37433,-0.23178 -7.46171,-0.31861 -0.0251,-0.0249 -0.044,-0.0558 -0.0595,-0.0894 z m -52.69024,9.16614 c 0,8e-4 0,0.002 -0.003,0.003 -0.12358,0.12253 -2.10483,0.30925 -4.40279,0.41507 -4.301808,0.19807 -4.967828,0.37179 -4.967828,1.29465 0,0.042 0.01029,0.0872 0.02511,0.13482 0.143931,-0.69836 1.063882,-0.85693 4.942868,-1.0336 2.29795,-0.10467 4.27921,-0.28983 4.40277,-0.41102 0.0798,-0.0783 0.0757,-0.22652 0.003,-0.40244 z m 46.11928,0.84779 c -0.0358,0.078 -0.0554,0.15162 -0.0554,0.21511 0,0.56652 1.34232,0.75443 5.66925,0.79275 3.30354,0.0293 4.15324,0.15963 4.33137,0.7483204 0.0278,-0.0914 0.0387,-0.17526 0.0275,-0.25096 -0.10324,-0.7019404 -0.83596,-0.8500904 -4.35884,-0.8816204 -3.84255,-0.0344 -5.32859,-0.18854 -5.61379,-0.6236 z"
         style="fill:#badb9a;fill-opacity:1;stroke-width:0.25147176" />
      <path
         inkscape:connector-curvature="0"
         id="path6114"
         d="m 130.2375,15.022581 c 2.08239,-2.24172 29.60893,-49.14874 29.60893,-50.45554 0,-0.22295 -0.2992,-0.60138 -0.66485,-0.84097 -0.61727,-0.40446 -2.68884,-0.43544 -28.97002,-0.43332 -16.9943,10e-4 -28.7623,0.0994 -29.44905,0.2454 -0.78206,0.16621 -1.17199,0.38911 -1.232759,0.70468 -0.150231,0.77988 2.141619,4.9154 13.780039,24.8659 12.8007,21.94279 14.51771,24.81407 15.42016,25.7865 0.78566,0.84658 0.83553,0.8508 1.50755,0.12735 z"
         style="fill:#ffffff;fill-opacity:1;stroke-width:0.25526679" />
      <path
         inkscape:connector-curvature="0"
         id="path6112"
         d="m 128.65932,9.9028714 c -0.61888,-0.8114 -5.82044,-9.71429998 -19.66344,-33.6555504 l -6.18484,-10.69663 5.53267,-0.0836 c 7.05076,-0.10658 42.40514,0.44595 45.27541,0.70756 1.19206,0.10864 2.2345,0.26465 2.31651,0.34667 0.22655,0.22662 -0.88854,2.14331 -12.77116,21.95073 -11.84353,19.7422904 -13.40184,22.28135 -13.67586,22.28334 -0.0979,8e-4 -0.4711,-0.38292 -0.82929,-0.8524996 z"
         style="fill:#496e27;fill-opacity:1;stroke-width:0.25526679" />
      <path
         id="path8-1"
         d="m 142.12235,-19.040379 -11.74595,-11.74451 c -0.67584,-0.67644 -1.77283,-0.67644 -2.44955,0 l -2.43885,2.43915 3.09361,3.09369 c 0.71922,-0.24282 1.54357,-0.0801 2.11659,0.49312 0.57607,0.57671 0.73769,1.40809 0.48877,2.12971 l 2.98174,2.98177 c 0.72143,-0.24859 1.55373,-0.088 2.1297,0.48906 0.80533,0.80508 0.80533,2.10965 0,2.91494 -0.80543,0.80556 -2.10998,0.80556 -2.91585,0 -0.60552,-0.60602 -0.75537,-1.49572 -0.44863,-2.2418 l -2.78081,-2.78082 v 7.31769 c 0.19632,0.0972 0.38169,0.22691 0.54527,0.38981 0.80506,0.80499 0.80506,2.10931 0,2.91566 -0.80533,0.8049604 -2.11042,0.8049604 -2.91496,0 -0.80516,-0.80628 -0.80516,-2.1106 0,-2.91566 0.19901,-0.19863 0.42926,-0.34898 0.67495,-0.44976 v -7.3857 c -0.24578,-0.10036 -0.47576,-0.24958 -0.67504,-0.44982 -0.60998,-0.60943 -0.75687,-1.50458 -0.44407,-2.25353 l -3.04972,-3.05025 -8.05323,8.05299 c -0.67664,0.67696 -0.67664,1.774 0,2.45049 l 11.74523,11.7445404 c 0.67619,0.67644 1.77282,0.67644 2.45001,0 l 11.69097,-11.6890504 c 0.67638,-0.67678 0.67638,-1.77414 0,-2.45073"
         style="fill:#253814;fill-opacity:1;stroke:none;stroke-width:0.23666583;stroke-opacity:1"
         inkscape:connector-curvature="0" />
      <path
         id="path8"
         d="m 142.32868,-19.298309 -11.74595,-11.74451 c -0.67585,-0.67645 -1.77283,-0.67645 -2.44955,0 l -2.43885,2.43915 3.09361,3.09368 c 0.71922,-0.24282 1.54357,-0.08 2.11659,0.49313 0.57607,0.57671 0.73769,1.40809 0.48877,2.12971 l 2.98173,2.98177 c 0.72144,-0.2486 1.55373,-0.088 2.1297,0.48905 0.80534,0.80508 0.80534,2.10965 0,2.91495 -0.80542,0.80555 -2.10998,0.80555 -2.91584,0 -0.60552,-0.60602 -0.75537,-1.49573 -0.44864,-2.2418 l -2.7808,-2.78083 v 7.31769 c 0.19632,0.0972 0.38169,0.22692 0.54526,0.38982 0.80507,0.80499 0.80507,2.10931 0,2.91565 -0.80532,0.80497 -2.11042,0.80497 -2.91495,0 -0.80517,-0.80627 -0.80517,-2.11059 0,-2.91565 0.19901,-0.19864 0.42925,-0.34899 0.67495,-0.44976 v -7.38571 c -0.24579,-0.10035 -0.47576,-0.24957 -0.67504,-0.44981 -0.60998,-0.60943 -0.75687,-1.50458 -0.44407,-2.25354 l -3.04972,-3.05024 -8.05323,8.05299 c -0.67665,0.67696 -0.67665,1.77399 0,2.45049 l 11.74523,11.7445304 c 0.67619,0.67644 1.77281,0.67644 2.45,0 l 11.69098,-11.6890404 c 0.67637,-0.67678 0.67637,-1.77414 0,-2.45073"
         style="fill:#ffffff;fill-opacity:1;stroke:none;stroke-width:0.23666582;stroke-opacity:1"
         inkscape:connector-curvature="0" />
      <g
         transform="matrix(0.97711464,0,0,0.97711464,-412.87851,-94.478699)"
         id="g6161"
         style="stroke-width:1.002298">
        <path
           sodipodi:type="star"
           style="opacity:1;fill:#c99b1d;fill-opacity:1;stroke:none;stroke-width:0.26560897;stroke-miterlimit:4;stroke-dasharray:none"
           id="path6124"
           sodipodi:sides="5"
           sodipodi:cx="476.77542"
           sodipodi:cy="19.72681"
           sodipodi:r1="33.569603"
           sodipodi:r2="16.784801"
           sodipodi:arg1="2.2160928"
           sodipodi:arg2="2.8444113"
           inkscape:flatsided="false"
           inkscape:rounded="0"
           inkscape:randomized="0"
           d="m 456.58548,46.546288 4.14089,-21.904447 -15.69682,-15.8291351 22.11197,-2.8306217 10.20382,-19.8200382 9.52505,20.1550255 22.00313,3.579678 -16.22516,15.2871125 3.39486,22.032402 -19.55276,-10.707071 z"
           inkscape:transform-center-x="0.0041459128"
           inkscape:transform-center-y="-0.9659073"
           transform="matrix(0.30249691,-0.00553583,0.00553583,0.30249691,388.35124,37.439663)" />
        <path
           sodipodi:type="star"
           style="opacity:1;fill:#c99b1d;fill-opacity:1;stroke:none;stroke-width:0.26560897;stroke-miterlimit:4;stroke-dasharray:none"
           id="path6124-4"
           sodipodi:sides="5"
           sodipodi:cx="476.77542"
           sodipodi:cy="19.72681"
           sodipodi:r1="33.569603"
           sodipodi:r2="16.784801"
           sodipodi:arg1="2.2160928"
           sodipodi:arg2="2.8444113"
           inkscape:flatsided="false"
           inkscape:rounded="0"
           inkscape:randomized="0"
           d="m 456.58548,46.546288 4.14089,-21.904447 -15.69682,-15.8291351 22.11197,-2.8306217 10.20382,-19.8200382 9.52505,20.1550255 22.00313,3.579678 -16.22516,15.2871125 3.39486,22.032402 -19.55276,-10.707071 z"
           inkscape:transform-center-x="0.0041459128"
           inkscape:transform-center-y="-0.9659073"
           transform="matrix(0.30249691,-0.00553583,0.00553583,0.30249691,410.01124,37.439654)" />
        <path
           sodipodi:type="star"
           style="opacity:1;fill:#c99b1d;fill-opacity:1;stroke:none;stroke-width:0.26560897;stroke-miterlimit:4;stroke-dasharray:none"
           id="path6124-4-5"
           sodipodi:sides="5"
           sodipodi:cx="476.77542"
           sodipodi:cy="19.72681"
           sodipodi:r1="33.569603"
           sodipodi:r2="16.784801"
           sodipodi:arg1="2.2160928"
           sodipodi:arg2="2.8444113"
           inkscape:flatsided="false"
           inkscape:rounded="0"
           inkscape:randomized="0"
           d="m 456.58548,46.546288 4.14089,-21.904447 -15.69682,-15.8291351 22.11197,-2.8306217 10.20382,-19.8200382 9.52505,20.1550255 22.00313,3.579678 -16.22516,15.2871125 3.39486,22.032402 -19.55276,-10.707071 z"
           inkscape:transform-center-x="0.0041459128"
           inkscape:transform-center-y="-0.9659073"
           transform="matrix(0.30249691,-0.00553583,0.00553583,0.30249691,432.03098,37.439654)" />
      </g>
    </g>
  </g>
</svg>
